<svg width="264" height="21" viewBox="0 0 264 21" fill="none" xmlns="http://www.w3.org/2000/svg">
<path d="M20.7836 10.272C20.7836 11.936 20.5276 13.408 20.0156 14.688C19.5249 15.968 18.8316 17.0453 17.9356 17.92C17.0396 18.7733 15.9836 19.424 14.7676 19.872C13.5516 20.32 12.2289 20.544 10.7996 20.544C9.37028 20.544 8.04761 20.32 6.83161 19.872C5.61561 19.424 4.55961 18.7733 3.66361 17.92C2.78894 17.0453 2.09561 15.968 1.58361 14.688C1.09294 13.408 0.847609 11.936 0.847609 10.272C0.847609 8.608 1.10361 7.14667 1.61561 5.888C2.12761 4.608 2.83161 3.54133 3.72761 2.688C4.62361 1.81333 5.66894 1.152 6.86361 0.703999C8.07961 0.255999 9.39161 0.0319996 10.7996 0.0319996C12.2076 0.0319996 13.5196 0.255999 14.7356 0.703999C15.9516 1.152 17.0076 1.81333 17.9036 2.688C18.7996 3.54133 19.5036 4.608 20.0156 5.888C20.5276 7.14667 20.7836 8.608 20.7836 10.272ZM15.5996 10.272C15.5996 8.224 15.1623 6.688 14.2876 5.664C13.4343 4.61867 12.2716 4.096 10.7996 4.096C9.34894 4.096 8.18628 4.61867 7.31161 5.664C6.43694 6.688 5.99961 8.224 5.99961 10.272C5.99961 12.3413 6.42628 13.8987 7.27961 14.944C8.15428 15.968 9.32761 16.48 10.7996 16.48C12.2716 16.48 13.4343 15.968 14.2876 14.944C15.1623 13.8987 15.5996 12.3413 15.5996 10.272ZM41.3979 19.392C41.0992 19.648 40.6939 19.8507 40.1819 20C39.6699 20.1707 39.0619 20.256 38.3579 20.256C37.6325 20.256 36.9499 20.1387 36.3099 19.904C35.6699 19.6693 35.1365 19.136 34.7099 18.304L30.9979 11.136C30.6352 10.4533 30.2939 9.77067 29.9739 9.088C29.6752 8.40533 29.3765 7.69067 29.0779 6.944L28.8539 7.008C28.9605 8.288 29.0245 9.51467 29.0459 10.688C29.0672 11.84 29.0779 12.96 29.0779 14.048V20C28.8645 20.0427 28.5445 20.0853 28.1179 20.128C27.7125 20.192 27.2859 20.224 26.8379 20.224C25.8779 20.224 25.2059 20.064 24.8219 19.744C24.4379 19.4027 24.2459 18.8053 24.2459 17.952V1.472C24.5019 1.10933 24.9072 0.831999 25.4619 0.639999C26.0379 0.426666 26.6459 0.32 27.2859 0.32C28.0325 0.32 28.7152 0.437333 29.3339 0.671999C29.9739 0.906665 30.5072 1.42933 30.9339 2.24L34.6779 9.44C35.0405 10.1227 35.3712 10.8053 35.6699 11.488C35.9899 12.1707 36.2992 12.8853 36.5979 13.632L36.7259 13.6C36.6192 12.1707 36.5552 10.816 36.5339 9.536C36.5339 8.256 36.5339 7.02933 36.5339 5.856V0.543999C36.7472 0.501333 37.0565 0.447999 37.4619 0.383999C37.8885 0.319998 38.3365 0.287998 38.8059 0.287998C39.7659 0.287998 40.4379 0.458665 40.8219 0.799999C41.2059 1.12 41.3979 1.70667 41.3979 2.56V19.392ZM48.4956 20.064C47.6849 20.064 47.0343 19.8293 46.5436 19.36C46.0743 18.8693 45.8396 18.2187 45.8396 17.408V0.543999C46.0743 0.501333 46.4049 0.447999 46.8316 0.383999C47.2796 0.319998 47.7169 0.287998 48.1436 0.287998C49.1036 0.287998 49.7969 0.447999 50.2236 0.768C50.6503 1.088 50.8636 1.71733 50.8636 2.656V16H58.5436C58.6716 16.2133 58.7889 16.4907 58.8956 16.832C59.0236 17.1733 59.0876 17.5467 59.0876 17.952C59.0876 18.656 58.9276 19.1893 58.6076 19.552C58.3089 19.8933 57.8929 20.064 57.3596 20.064H48.4956ZM64.8714 20.224C63.8687 20.224 63.1647 20.0533 62.7594 19.712C62.3754 19.3707 62.1834 18.752 62.1834 17.856V0.543999C62.418 0.501333 62.7487 0.447999 63.1754 0.383999C63.6234 0.319998 64.0714 0.287998 64.5194 0.287998C65.4794 0.287998 66.162 0.447999 66.5674 0.768C66.994 1.088 67.2074 1.71733 67.2074 2.656V19.968C66.9727 20.032 66.642 20.0853 66.2154 20.128C65.7887 20.192 65.3407 20.224 64.8714 20.224ZM88.8354 19.392C88.5367 19.648 88.1314 19.8507 87.6194 20C87.1074 20.1707 86.4994 20.256 85.7954 20.256C85.07 20.256 84.3874 20.1387 83.7474 19.904C83.1074 19.6693 82.574 19.136 82.1474 18.304L78.4354 11.136C78.0727 10.4533 77.7314 9.77067 77.4114 9.088C77.1127 8.40533 76.814 7.69067 76.5154 6.944L76.2914 7.008C76.398 8.288 76.462 9.51467 76.4834 10.688C76.5047 11.84 76.5154 12.96 76.5154 14.048V20C76.302 20.0427 75.982 20.0853 75.5554 20.128C75.15 20.192 74.7234 20.224 74.2754 20.224C73.3154 20.224 72.6434 20.064 72.2594 19.744C71.8754 19.4027 71.6834 18.8053 71.6834 17.952V1.472C71.9394 1.10933 72.3447 0.831999 72.8994 0.639999C73.4754 0.426666 74.0834 0.32 74.7234 0.32C75.47 0.32 76.1527 0.437333 76.7714 0.671999C77.4114 0.906665 77.9447 1.42933 78.3714 2.24L82.1154 9.44C82.478 10.1227 82.8087 10.8053 83.1074 11.488C83.4274 12.1707 83.7367 12.8853 84.0354 13.632L84.1634 13.6C84.0567 12.1707 83.9927 10.816 83.9714 9.536C83.9714 8.256 83.9714 7.02933 83.9714 5.856V0.543999C84.1847 0.501333 84.494 0.447999 84.8994 0.383999C85.326 0.319998 85.774 0.287998 86.2434 0.287998C87.2034 0.287998 87.8754 0.458665 88.2594 0.799999C88.6434 1.12 88.8354 1.70667 88.8354 2.56V19.392ZM95.9331 20.064C95.1224 20.064 94.4718 19.8293 93.9811 19.36C93.5118 18.8693 93.2771 18.2187 93.2771 17.408V3.264C93.2771 2.45333 93.5118 1.81333 93.9811 1.344C94.4718 0.853333 95.1224 0.608 95.9331 0.608H106.525C106.653 0.821333 106.77 1.088 106.877 1.408C106.984 1.728 107.037 2.09067 107.037 2.496C107.037 3.2 106.877 3.72267 106.557 4.064C106.258 4.40533 105.832 4.576 105.277 4.576H98.1731V8.16H105.597C105.725 8.37333 105.842 8.64 105.949 8.96C106.056 9.28 106.109 9.64267 106.109 10.048C106.109 10.752 105.96 11.2747 105.661 11.616C105.362 11.936 104.936 12.096 104.381 12.096H98.1731V16.096H106.653C106.781 16.3093 106.898 16.5867 107.005 16.928C107.112 17.2693 107.165 17.6427 107.165 18.048C107.165 18.752 107.005 19.264 106.685 19.584C106.386 19.904 105.97 20.064 105.437 20.064H95.9331ZM126.113 4.64V19.968C125.878 20.032 125.548 20.0853 125.121 20.128C124.694 20.192 124.246 20.224 123.777 20.224C122.774 20.224 122.07 20.0533 121.665 19.712C121.26 19.3707 121.057 18.752 121.057 17.856V4.64H116.033C115.905 4.42667 115.777 4.14933 115.649 3.808C115.542 3.46667 115.489 3.09333 115.489 2.688C115.489 1.96267 115.649 1.44 115.969 1.12C116.289 0.778666 116.726 0.608 117.281 0.608H131.265C131.414 0.821333 131.542 1.09867 131.649 1.44C131.756 1.78133 131.809 2.15467 131.809 2.56C131.809 3.264 131.649 3.78667 131.329 4.128C131.009 4.46933 130.572 4.64 130.017 4.64H126.113ZM152.815 10.272C152.815 11.936 152.559 13.408 152.047 14.688C151.556 15.968 150.863 17.0453 149.967 17.92C149.071 18.7733 148.015 19.424 146.799 19.872C145.583 20.32 144.26 20.544 142.831 20.544C141.402 20.544 140.079 20.32 138.863 19.872C137.647 19.424 136.591 18.7733 135.695 17.92C134.82 17.0453 134.127 15.968 133.615 14.688C133.124 13.408 132.879 11.936 132.879 10.272C132.879 8.608 133.135 7.14667 133.647 5.888C134.159 4.608 134.863 3.54133 135.759 2.688C136.655 1.81333 137.7 1.152 138.895 0.703999C140.111 0.255999 141.423 0.0319996 142.831 0.0319996C144.239 0.0319996 145.551 0.255999 146.767 0.703999C147.983 1.152 149.039 1.81333 149.935 2.688C150.831 3.54133 151.535 4.608 152.047 5.888C152.559 7.14667 152.815 8.608 152.815 10.272ZM147.631 10.272C147.631 8.224 147.194 6.688 146.319 5.664C145.466 4.61867 144.303 4.096 142.831 4.096C141.38 4.096 140.218 4.61867 139.343 5.664C138.468 6.688 138.031 8.224 138.031 10.272C138.031 12.3413 138.458 13.8987 139.311 14.944C140.186 15.968 141.359 16.48 142.831 16.48C144.303 16.48 145.466 15.968 146.319 14.944C147.194 13.8987 147.631 12.3413 147.631 10.272ZM168.853 10.304C168.853 8.23467 168.341 6.69867 167.317 5.696C166.314 4.672 165.002 4.16 163.381 4.16C162.997 4.16 162.634 4.17067 162.293 4.192C161.952 4.21333 161.61 4.256 161.269 4.32V16.224C161.546 16.288 161.877 16.3413 162.261 16.384C162.666 16.4053 163.05 16.416 163.413 16.416C165.077 16.416 166.4 15.9147 167.381 14.912C168.362 13.888 168.853 12.352 168.853 10.304ZM174.037 10.24C174.037 11.9467 173.781 13.44 173.269 14.72C172.757 16 172.032 17.0667 171.093 17.92C170.176 18.7733 169.056 19.4133 167.733 19.84C166.432 20.2667 164.981 20.48 163.381 20.48C163.018 20.48 162.602 20.4693 162.133 20.448C161.685 20.4267 161.216 20.384 160.725 20.32C160.256 20.2773 159.776 20.2027 159.285 20.096C158.794 20.0107 158.346 19.8933 157.941 19.744C156.832 19.3387 156.277 18.6133 156.277 17.568V2.336C156.277 1.90933 156.384 1.57867 156.597 1.344C156.832 1.10933 157.162 0.917332 157.589 0.768C158.464 0.490666 159.392 0.309333 160.373 0.223999C161.354 0.138666 162.25 0.0959988 163.061 0.0959988C164.704 0.0959988 166.197 0.298665 167.541 0.703999C168.885 1.10933 170.037 1.73867 170.997 2.592C171.957 3.424 172.704 4.48 173.237 5.76C173.77 7.01867 174.037 8.512 174.037 10.24ZM196.44 10.272C196.44 11.936 196.184 13.408 195.672 14.688C195.181 15.968 194.488 17.0453 193.592 17.92C192.696 18.7733 191.64 19.424 190.424 19.872C189.208 20.32 187.885 20.544 186.456 20.544C185.027 20.544 183.704 20.32 182.488 19.872C181.272 19.424 180.216 18.7733 179.32 17.92C178.445 17.0453 177.752 15.968 177.24 14.688C176.749 13.408 176.504 11.936 176.504 10.272C176.504 8.608 176.76 7.14667 177.272 5.888C177.784 4.608 178.488 3.54133 179.384 2.688C180.28 1.81333 181.325 1.152 182.52 0.703999C183.736 0.255999 185.048 0.0319996 186.456 0.0319996C187.864 0.0319996 189.176 0.255999 190.392 0.703999C191.608 1.152 192.664 1.81333 193.56 2.688C194.456 3.54133 195.16 4.608 195.672 5.888C196.184 7.14667 196.44 8.608 196.44 10.272ZM191.256 10.272C191.256 8.224 190.819 6.688 189.944 5.664C189.091 4.61867 187.928 4.096 186.456 4.096C185.005 4.096 183.843 4.61867 182.968 5.664C182.093 6.688 181.656 8.224 181.656 10.272C181.656 12.3413 182.083 13.8987 182.936 14.944C183.811 15.968 184.984 16.48 186.456 16.48C187.928 16.48 189.091 15.968 189.944 14.944C190.819 13.8987 191.256 12.3413 191.256 10.272ZM208.964 20.064C208.154 20.064 207.503 19.8293 207.012 19.36C206.543 18.8693 206.308 18.2187 206.308 17.408V0.543999C206.543 0.501333 206.874 0.447999 207.3 0.383999C207.748 0.319998 208.186 0.287998 208.612 0.287998C209.572 0.287998 210.266 0.447999 210.692 0.768C211.119 1.088 211.332 1.71733 211.332 2.656V16H219.012C219.14 16.2133 219.258 16.4907 219.364 16.832C219.492 17.1733 219.556 17.5467 219.556 17.952C219.556 18.656 219.396 19.1893 219.076 19.552C218.778 19.8933 218.362 20.064 217.828 20.064H208.964ZM225.34 20.224C224.337 20.224 223.633 20.0533 223.228 19.712C222.844 19.3707 222.652 18.752 222.652 17.856V0.543999C222.887 0.501333 223.217 0.447999 223.644 0.383999C224.092 0.319998 224.54 0.287998 224.988 0.287998C225.948 0.287998 226.631 0.447999 227.036 0.768C227.463 1.088 227.676 1.71733 227.676 2.656V19.968C227.441 20.032 227.111 20.0853 226.684 20.128C226.257 20.192 225.809 20.224 225.34 20.224ZM237.976 16.448C239.107 16.448 239.907 16.256 240.376 15.872C240.867 15.4667 241.112 14.9867 241.112 14.432C241.112 13.92 240.92 13.5147 240.536 13.216C240.173 12.896 239.619 12.6187 238.872 12.384L237.24 11.872C236.344 11.5947 235.533 11.296 234.808 10.976C234.083 10.6347 233.464 10.24 232.952 9.792C232.44 9.32267 232.035 8.77867 231.736 8.16C231.459 7.52 231.32 6.752 231.32 5.856C231.32 4.064 231.992 2.64533 233.336 1.6C234.701 0.554666 236.589 0.0319996 239 0.0319996C239.917 0.0319996 240.76 0.0959994 241.528 0.223999C242.317 0.351999 242.989 0.554665 243.544 0.831999C244.099 1.088 244.536 1.408 244.856 1.792C245.176 2.176 245.336 2.624 245.336 3.136C245.336 3.62667 245.208 4.064 244.952 4.448C244.717 4.81067 244.44 5.12 244.12 5.376C243.629 5.03467 242.979 4.74667 242.168 4.512C241.357 4.27733 240.472 4.16 239.512 4.16C238.488 4.16 237.731 4.32 237.24 4.64C236.749 4.96 236.504 5.36533 236.504 5.856C236.504 6.28267 236.664 6.61333 236.984 6.848C237.304 7.06133 237.805 7.28533 238.488 7.52L240.216 8.096C241.219 8.43733 242.093 8.81067 242.84 9.216C243.608 9.6 244.248 10.048 244.76 10.56C245.272 11.0507 245.656 11.6267 245.912 12.288C246.168 12.928 246.296 13.664 246.296 14.496C246.296 15.392 246.115 16.2133 245.752 16.96C245.411 17.6853 244.888 18.3147 244.184 18.848C243.501 19.3813 242.648 19.7973 241.624 20.096C240.621 20.3947 239.459 20.544 238.136 20.544C237.155 20.544 236.248 20.4587 235.416 20.288C234.584 20.1387 233.859 19.9147 233.24 19.616C232.643 19.3173 232.163 18.9547 231.8 18.528C231.459 18.08 231.288 17.5787 231.288 17.024C231.288 16.448 231.448 15.968 231.768 15.584C232.109 15.2 232.483 14.8907 232.888 14.656C233.464 15.1253 234.179 15.5413 235.032 15.904C235.907 16.2667 236.888 16.448 237.976 16.448ZM258.175 4.64V19.968C257.941 20.032 257.61 20.0853 257.183 20.128C256.757 20.192 256.309 20.224 255.839 20.224C254.837 20.224 254.133 20.0533 253.727 19.712C253.322 19.3707 253.119 18.752 253.119 17.856V4.64H248.095C247.967 4.42667 247.839 4.14933 247.711 3.808C247.605 3.46667 247.551 3.09333 247.551 2.688C247.551 1.96267 247.711 1.44 248.031 1.12C248.351 0.778666 248.789 0.608 249.343 0.608H263.327C263.477 0.821333 263.605 1.09867 263.711 1.44C263.818 1.78133 263.871 2.15467 263.871 2.56C263.871 3.264 263.711 3.78667 263.391 4.128C263.071 4.46933 262.634 4.64 262.079 4.64H258.175Z" fill="#333333"/>
</svg>
